<svg viewBox="0 0 861 534" role="img" lang="en" aria-labelledby="archify-diagram-title archify-diagram-description" data-preset="classic" data-quality-profile="showcase">
        <title id="archify-diagram-title">What the SDK exposes</title>
        <desc id="archify-diagram-description">A workflow diagram generated by Archify.</desc>
        <!-- Definitions -->
        <defs>
          <marker id="arrowhead" markerWidth="10" markerHeight="7" refX="9" refY="3.5" orient="auto">
            <polygon points="0 0, 10 3.5, 0 7" class="m-default" />
          </marker>
          <marker id="arrowhead-emphasis" markerWidth="10" markerHeight="7" refX="9" refY="3.5" orient="auto">
            <polygon points="0 0, 10 3.5, 0 7" class="m-emphasis" />
          </marker>
          <marker id="arrowhead-security" markerWidth="10" markerHeight="7" refX="9" refY="3.5" orient="auto">
            <polygon points="0 0, 10 3.5, 0 7" class="m-security" />
          </marker>
          <marker id="arrowhead-dashed" markerWidth="10" markerHeight="7" refX="9" refY="3.5" orient="auto">
            <polygon points="0 0, 10 3.5, 0 7" class="m-dashed" />
          </marker>
          <pattern id="grid" width="40" height="40" patternUnits="userSpaceOnUse">
            <path d="M 40 0 L 0 0 0 40" class="c-grid" stroke-width="0.5"/>
          </pattern>
        </defs>

        <!-- Background Grid -->
        <rect width="100%" height="100%" fill="url(#grid)" />

        <!-- Swimlanes -->
        <rect data-graph-role="structural-frame" data-composition-frame-kind="lane" data-composition-frame-id="lane-0" x="40" y="52" width="793" height="106" rx="10" class="c-lane" stroke-width="1"/>
        <text x="54" y="74" class="t-dim" font-size="10" font-weight="600">01 / Runtime</text>

        <rect data-graph-role="structural-frame" data-composition-frame-kind="lane" data-composition-frame-id="lane-1" x="40" y="178" width="793" height="106" rx="10" class="c-lane" stroke-width="1"/>
        <text x="54" y="200" class="t-dim" font-size="10" font-weight="600">02 / PixelKit</text>

        <rect data-graph-role="structural-frame" data-composition-frame-kind="lane" data-composition-frame-id="lane-2" x="40" y="304" width="793" height="106" rx="10" class="c-lane" stroke-width="1"/>
        <text x="54" y="326" class="t-dim" font-size="10" font-weight="600">03 / Hardware</text>

        <!-- Phase headers -->


        <!-- Workflow groups -->


        <!-- Edge paths -->
        <path data-edge-from="rn" data-edge-to="sdk" data-edge-label="import a hook" data-edge-key="0" data-composition-points="187,120;845,120;845,228;194,228" d="M 187 120 L 845 120 L 845 228 L 194 228" class="a-emphasis" stroke-width="1.8" marker-end="url(#arrowhead-emphasis)"/>
        <path data-edge-from="sdk" data-edge-to="cpu" data-edge-key="1" data-composition-points="48,246;20,246;20,372;54,372" d="M 48 246 L 20 246 L 20 372 L 54 372" class="a-default" stroke-width="1.4" marker-end="url(#arrowhead)"/>
        <path data-edge-from="sdk" data-edge-to="pro" data-edge-key="2" data-composition-points="194,240;397,240;397,346" d="M 194 240 L 397 240 L 397 346" class="a-default" stroke-width="1.4" marker-end="url(#arrowhead)"/>
        <path data-edge-from="sdk" data-edge-to="tpu" data-edge-key="3" data-composition-points="194,252;260,252;260,346" d="M 194 252 L 260 252 L 260 346" class="a-emphasis" stroke-width="1.8" marker-end="url(#arrowhead-emphasis)"/>
        <path data-edge-from="sdk" data-edge-to="vault" data-edge-key="4" data-composition-points="194,264;535,264;535,346" d="M 194 264 L 535 264 L 535 346" class="a-default" stroke-width="1.4" marker-end="url(#arrowhead)"/>

        <!-- Nodes -->
        <g id="node-rn" data-node-id="rn" data-node-label="React Native" tabindex="0" role="button" aria-label="Focus React Native, Expo, Hermes bytecode, Runtime" aria-pressed="false" data-node-kind="frontend" data-node-sublabel="Expo, Hermes bytecode" data-node-context="Runtime">
          <title>React Native · Expo, Hermes bytecode · Runtime</title>
          <rect x="55" y="94" width="132" height="52" rx="6" class="c-mask"/>
          <rect x="55" y="94" width="132" height="52" rx="6" class="c-frontend" stroke-width="1.5"/>
          <g aria-hidden="true" data-semantic-sigil="frontend" class="semantic-sigil s-frontend" transform="translate(61 100) scale(0.6875)">
            <rect x="2" y="3" width="12" height="10" rx="2"/>
            <path d="M2 6.5h12"/>
            <circle cx="4.1" cy="4.8" r=".7" class="sigil-fill"/>
            <circle cx="6.3" cy="4.8" r=".7" class="sigil-fill"/>
          </g>
          <text data-node-label="" data-detail-anchor="" x="121" y="115" class="t-primary" font-size="11" font-weight="600" text-anchor="middle">React Native</text>
          <text data-detail="context" x="121" y="132" class="t-muted" font-size="8" text-anchor="middle">Expo, Hermes bytecode</text>
        </g>

        <g id="node-sdk" data-node-id="sdk" data-node-label="@pixelkit-labs/sdk" tabindex="0" role="button" aria-label="Focus @pixelkit-labs/sdk, 51 hooks from one barrel, PixelKit" aria-pressed="false" data-node-kind="backend" data-node-sublabel="51 hooks from one barrel" data-node-tag="src/index.ts" data-node-context="PixelKit">
          <title>@pixelkit-labs/sdk · 51 hooks from one barrel · PixelKit · src/index.ts</title>
          <rect x="48" y="212" width="146" height="68" rx="6" class="c-mask"/>
          <rect x="48" y="212" width="146" height="68" rx="6" class="c-backend" stroke-width="1.5"/>
          <g aria-hidden="true" data-semantic-sigil="backend" class="semantic-sigil s-backend" transform="translate(54 218) scale(0.6875)">
            <path d="M6 3 3 8l3 5M10 3l3 5-3 5"/>
          </g>
          <text data-node-label="" data-detail-anchor="" x="121" y="233" class="t-primary" font-size="11" font-weight="600" text-anchor="middle">@pixelkit-labs/sdk</text>
          <text data-detail="context" x="121" y="250" class="t-muted" font-size="8" text-anchor="middle">51 hooks from one barrel</text>
        <text data-detail="fine" x="121" y="268" class="t-backend" font-size="7" text-anchor="middle">src/index.ts</text>
        </g>

        <g id="node-cpu" data-node-id="cpu" data-node-label="CPU and GPU" tabindex="0" role="button" aria-label="Focus CPU and GPU, Tensor G6, real cpufreq, Hardware" aria-pressed="false" data-node-kind="database" data-node-sublabel="Tensor G6, real cpufreq" data-node-context="Hardware">
          <title>CPU and GPU · Tensor G6, real cpufreq · Hardware</title>
          <rect x="54" y="346" width="134" height="52" rx="6" class="c-mask"/>
          <rect x="54" y="346" width="134" height="52" rx="6" class="c-database" stroke-width="1.5"/>
          <g aria-hidden="true" data-semantic-sigil="database" class="semantic-sigil s-database" transform="translate(60 352) scale(0.6875)">
            <ellipse cx="8" cy="4" rx="5" ry="2"/>
            <path d="M3 4v8c0 1.1 2.2 2 5 2s5-.9 5-2V4M3 8c0 1.1 2.2 2 5 2s5-.9 5-2"/>
          </g>
          <text data-node-label="" data-detail-anchor="" x="121" y="367" class="t-primary" font-size="11" font-weight="600" text-anchor="middle">CPU and GPU</text>
          <text data-detail="context" x="121" y="384" class="t-muted" font-size="8" text-anchor="middle">Tensor G6, real cpufreq</text>
        </g>

        <g id="node-tpu" data-node-id="tpu" data-node-label="Tensor TPU" tabindex="0" role="button" aria-label="Focus Tensor TPU, AICore, Nano, ML Kit, Hardware" aria-pressed="false" data-node-kind="cloud" data-node-sublabel="AICore, Nano, ML Kit" data-node-context="Hardware">
          <title>Tensor TPU · AICore, Nano, ML Kit · Hardware</title>
          <rect x="196" y="346" width="128" height="52" rx="6" class="c-mask"/>
          <rect x="196" y="346" width="128" height="52" rx="6" class="c-cloud" stroke-width="1.5"/>
          <g aria-hidden="true" data-semantic-sigil="cloud" class="semantic-sigil s-cloud" transform="translate(202 352) scale(0.6875)">
            <path d="M4.3 12.5h7.3a2.4 2.4 0 0 0 .2-4.8 4 4 0 0 0-7.5-1.3A3.1 3.1 0 0 0 4.3 12.5Z"/>
          </g>
          <text data-node-label="" data-detail-anchor="" x="260" y="367" class="t-primary" font-size="11" font-weight="600" text-anchor="middle">Tensor TPU</text>
          <text data-detail="context" x="260" y="384" class="t-muted" font-size="8" text-anchor="middle">AICore, Nano, ML Kit</text>
        </g>

        <g id="node-pro" data-node-id="pro" data-node-label="Pro exclusives" tabindex="0" role="button" aria-label="Focus Pro exclusives, HiLight array, UWB, Hardware" aria-pressed="false" data-node-kind="messagebus" data-node-sublabel="HiLight array, UWB" data-node-context="Hardware">
          <title>Pro exclusives · HiLight array, UWB · Hardware</title>
          <rect x="332" y="346" width="130" height="52" rx="6" class="c-mask"/>
          <rect x="332" y="346" width="130" height="52" rx="6" class="c-messagebus" stroke-width="1.5"/>
          <g aria-hidden="true" data-semantic-sigil="messagebus" class="semantic-sigil s-messagebus" transform="translate(338 352) scale(0.6875)">
            <path d="M2.5 4.5h11M2.5 8h11M2.5 11.5h11"/>
            <circle cx="5" cy="4.5" r="1" class="sigil-fill"/>
            <circle cx="10.5" cy="8" r="1" class="sigil-fill"/>
            <circle cx="7" cy="11.5" r="1" class="sigil-fill"/>
          </g>
          <text data-node-label="" data-detail-anchor="" x="397" y="367" class="t-primary" font-size="11" font-weight="600" text-anchor="middle">Pro exclusives</text>
          <text data-detail="context" x="397" y="384" class="t-muted" font-size="8" text-anchor="middle">HiLight array, UWB</text>
        </g>

        <g id="node-vault" data-node-id="vault" data-node-label="Keystore" tabindex="0" role="button" aria-label="Focus Keystore, StrongBox, biometrics, Hardware" aria-pressed="false" data-node-kind="security" data-node-sublabel="StrongBox, biometrics" data-node-context="Hardware">
          <title>Keystore · StrongBox, biometrics · Hardware</title>
          <rect x="470" y="346" width="130" height="52" rx="6" class="c-mask"/>
          <rect x="470" y="346" width="130" height="52" rx="6" class="c-security" stroke-width="1.5"/>
          <g aria-hidden="true" data-semantic-sigil="security" class="semantic-sigil s-security" transform="translate(476 352) scale(0.6875)">
            <path d="M8 2.2 13 4v3.5c0 3.1-1.8 5.4-5 6.5-3.2-1.1-5-3.4-5-6.5V4Z"/>
            <path d="m5.8 8 1.5 1.5 3-3"/>
          </g>
          <text data-node-label="" data-detail-anchor="" x="535" y="367" class="t-primary" font-size="11" font-weight="600" text-anchor="middle">Keystore</text>
          <text data-detail="context" x="535" y="384" class="t-muted" font-size="8" text-anchor="middle">StrongBox, biometrics</text>
        </g>

        <!-- Edge labels -->
        <g data-detail="context" data-edge-from="rn" data-edge-to="sdk" data-edge-label="import a hook" data-edge-key="0">
          <rect x="479.8" y="100" width="72.4" height="14" rx="3" class="c-mask"/>
          <text x="516" y="110" class="t-backend" font-size="8" text-anchor="middle">import a hook</text>
        </g>





        <!-- Legend -->
        <g data-legend="" data-legend-bridge="">
          <text x="20" y="434" class="t-primary" font-size="12" font-weight="650">Legend</text>
          <g data-legend-semantic-kind="frontend" data-legend-kind="frontend" data-legend-label="User UI" data-legend-x="20" data-legend-baseline="454" data-legend-width="74">
            <rect x="20" y="446" width="14" height="9" rx="2" class="c-frontend" stroke-width="1"/>
            <text x="42" y="454" class="t-muted" font-size="7.5" font-weight="500">User UI</text>
          </g>
          <g data-legend-semantic-kind="backend" data-legend-kind="backend" data-legend-label="Agent logic" data-legend-x="101" data-legend-baseline="454" data-legend-width="91">
            <rect x="101" y="446" width="14" height="9" rx="2" class="c-backend" stroke-width="1"/>
            <text x="123" y="454" class="t-muted" font-size="7.5" font-weight="500">Agent logic</text>
          </g>
          <g data-legend-semantic-kind="security" data-legend-kind="security" data-legend-label="Policy" data-legend-x="199" data-legend-baseline="454" data-legend-width="70">
            <rect x="199" y="446" width="14" height="9" rx="2" class="c-security" stroke-width="1"/>
            <text x="221" y="454" class="t-muted" font-size="7.5" font-weight="500">Policy</text>
          </g>
          <g data-legend-semantic-kind="messagebus" data-legend-kind="messagebus" data-legend-label="Tool action" data-legend-x="276" data-legend-baseline="454" data-legend-width="91">
            <rect x="276" y="446" width="14" height="9" rx="2" class="c-messagebus" stroke-width="1"/>
            <text x="298" y="454" class="t-muted" font-size="7.5" font-weight="500">Tool action</text>
          </g>
          <g data-legend-semantic-kind="database" data-legend-kind="database" data-legend-label="Context / trace" data-legend-x="374" data-legend-baseline="454" data-legend-width="109">
            <rect x="374" y="446" width="14" height="9" rx="2" class="c-database" stroke-width="1"/>
            <text x="396" y="454" class="t-muted" font-size="7.5" font-weight="500">Context / trace</text>
          </g>
          <g data-legend-semantic-kind="cloud" data-legend-kind="cloud" data-legend-label="Cloud service" data-legend-x="490" data-legend-baseline="454" data-legend-width="100">
            <rect x="490" y="446" width="14" height="9" rx="2" class="c-cloud" stroke-width="1"/>
            <text x="512" y="454" class="t-muted" font-size="7.5" font-weight="500">Cloud service</text>
          </g>
        </g>
      </svg>
